<svg id="Capa_1" data-name="Capa 1" xmlns="http://www.w3.org/2000/svg" viewBox="0 0 114.83 47.42"><defs><style>.cls-1{fill:#e5e7eb;}</style></defs><path class="cls-1" d="M3.52,19A3.71,3.71,0,0,1,2,18.68,3.07,3.07,0,0,1,.62,17.52a3.91,3.91,0,0,1-.54-2.18,19.38,19.38,0,0,1,.24-3A30.78,30.78,0,0,1,1,9.3c.28-1,.58-2,.9-2.86s.66-1.69,1-2.38a10.93,10.93,0,0,1,.92-1.62c.29-.4.52-.6.7-.6a1.34,1.34,0,0,1,1,.4,1.58,1.58,0,0,1,.44,1.22,4.91,4.91,0,0,1-.24,1c-.15.51-.34,1.14-.58,1.9S4.58,7.93,4.3,8.82s-.52,1.77-.76,2.68S3.12,13.26,3,14.06a11.4,11.4,0,0,0-.22,2.06c0,.16.09.24.28.24a5.48,5.48,0,0,0,1.18-.2c.53-.13,1.11-.3,1.74-.5L7.78,15l1.5-.5a5.23,5.23,0,0,1,.7-.2,1.12,1.12,0,0,1,.8.28,1,1,0,0,1,.3.8,1.32,1.32,0,0,1-.48.84,7.72,7.72,0,0,1-1.28,1,13.71,13.71,0,0,1-1.8.88,13.32,13.32,0,0,1-2,.68A8.42,8.42,0,0,1,3.52,19ZM40.38,8.48c0,.19-.25.39-.76.62a15.25,15.25,0,0,1-2,.72q-1.26.36-2.82.72c-1,.23-2.09.43-3.16.62-.37,1.24-.74,2.49-1.1,3.76s-.67,2.43-.94,3.52a1,1,0,0,1-.46.66,1.29,1.29,0,0,1-.74.22,1.2,1.2,0,0,1-.82-.28.84.84,0,0,1-.32-.68,11.06,11.06,0,0,1,.4-2.3c.27-1,.59-2.25,1-3.58a29,29,0,0,1-1.86,2.42,15.2,15.2,0,0,1-1.78,1.8,12.38,12.38,0,0,1-2.74,1.72,6.48,6.48,0,0,1-2.8.66A4.21,4.21,0,0,1,16.14,18a4.78,4.78,0,0,1-1-3.32,11.75,11.75,0,0,1,.28-2.5,13.09,13.09,0,0,1,.8-2.36,11,11,0,0,1,1.14-2,6.06,6.06,0,0,1,1.34-1.34,2.45,2.45,0,0,1,1.4-.5,3.11,3.11,0,0,1,2.5.92,3.19,3.19,0,0,1,.8,2.22,3.14,3.14,0,0,1-.52,1.72,6.11,6.11,0,0,1-1.34,1.52,8.87,8.87,0,0,1-1.88,1.16,9.46,9.46,0,0,1-2.06.7v.3a2.49,2.49,0,0,0,.48,1.76,2.27,2.27,0,0,0,1.6.48,6.46,6.46,0,0,0,3.62-1.2,14.27,14.27,0,0,0,3.6-3.72c-.54,0-1,.06-1.42.06a1.7,1.7,0,0,1-1.12-.26,1.17,1.17,0,0,1-.24-.78.78.78,0,0,1,.14-.38,2.19,2.19,0,0,1,.38-.42.8.8,0,0,1,.5-.2l1.66-.16q.82-.07,1.56-.18A44.91,44.91,0,0,0,31,4a13.14,13.14,0,0,1,1.16-2.52c.42-.64.84-1,1.28-1a.83.83,0,0,1,.62.28,1,1,0,0,1,.3.84,6.9,6.9,0,0,1-.3,1.3c-.18.68-.44,1.54-.76,2.58s-.66,2.17-1,3.4c2.15-.35,3.81-.66,5-.94a13.69,13.69,0,0,1,2.22-.44.81.81,0,0,1,.66.28A.93.93,0,0,1,40.38,8.48ZM17.86,12.22a11.9,11.9,0,0,0,1.5-1,7.12,7.12,0,0,0,1.18-1.12A1.79,1.79,0,0,0,21,9a1,1,0,0,0-.18-.66.82.82,0,0,0-.66-.2,1.19,1.19,0,0,0-.88.58,7.06,7.06,0,0,0-.82,1.52A14.17,14.17,0,0,0,17.86,12.22Zm20.39-2a.82.82,0,0,1-.58-.2,1,1,0,0,1-.2-.7,1.25,1.25,0,0,1,.18-.62c.14-.21.28-.47.44-.76a5.32,5.32,0,0,0,.42-1.06,4.65,4.65,0,0,0,.2-1.48,3.52,3.52,0,0,0,0-.56c0-.2,0-.39,0-.56,0-1.39.44-2.08,1.32-2.08a1.26,1.26,0,0,1,1,.42,2.58,2.58,0,0,1,.38,1.68A8.35,8.35,0,0,1,41,6.76a7,7,0,0,1-.84,1.86,4.59,4.59,0,0,1-1,1.16A1.53,1.53,0,0,1,38.25,10.18Zm6,8.84A2.31,2.31,0,0,1,43,18.78a.81.81,0,0,1-.34-.7A1,1,0,0,1,43,17.4a3.11,3.11,0,0,1,1.24-.6A19.47,19.47,0,0,0,46.32,16,7.07,7.07,0,0,0,48,15a1.5,1.5,0,0,0,.66-1.14.63.63,0,0,0-.28-.58,1.05,1.05,0,0,0-.62-.18,5.29,5.29,0,0,0-.88.1c-.37,0-.78.13-1.24.22l-1.32.22a9,9,0,0,1-1.06.08,2.22,2.22,0,0,1-1.54-.46,1.64,1.64,0,0,1-.5-1.22,2.39,2.39,0,0,1,.42-1.1,13,13,0,0,1,1.12-1.54q.7-.84,1.56-1.68c.58-.56,1.16-1.07,1.74-1.54a11,11,0,0,1,1.7-1.14,3,3,0,0,1,1.36-.44,1.32,1.32,0,0,1,1,.4,1.46,1.46,0,0,1,.4,1.08,4.51,4.51,0,0,1-.06.7,1.42,1.42,0,0,1-.3.66,1.32,1.32,0,0,1-.74.4,3.35,3.35,0,0,1-1.36,0c-.45.33-.92.7-1.42,1.1a17.63,17.63,0,0,0-1.36,1.22,8.78,8.78,0,0,0-1.06,1.22A10.43,10.43,0,0,1,45.9,11a11,11,0,0,1,1.9-.16,3.69,3.69,0,0,1,1.88.42,2.45,2.45,0,0,1,1.08,1.08,3.14,3.14,0,0,1,.36,1.5,3.35,3.35,0,0,1-.6,1.84,6.82,6.82,0,0,1-1.6,1.68,8.52,8.52,0,0,1-2.22,1.22A6.83,6.83,0,0,1,44.24,19Zm21.41,0a2.28,2.28,0,0,1-1.22-.24.79.79,0,0,1-.34-.7.91.91,0,0,1,.28-.68,3,3,0,0,1,1.24-.6A21.15,21.15,0,0,0,67.73,16a7.28,7.28,0,0,0,1.66-1,1.5,1.5,0,0,0,.66-1.14.65.65,0,0,0-.28-.58,1.08,1.08,0,0,0-.62-.18,5.19,5.19,0,0,0-.88.1c-.38,0-.79.13-1.24.22l-1.32.22a9.32,9.32,0,0,1-1.06.08,2.18,2.18,0,0,1-1.54-.46,1.6,1.6,0,0,1-.5-1.22A2.39,2.39,0,0,1,63,11a12,12,0,0,1,1.12-1.54,19.93,19.93,0,0,1,1.56-1.68A22.33,22.33,0,0,1,67.45,6.2a10.51,10.51,0,0,1,1.7-1.14,3,3,0,0,1,1.36-.44,1.35,1.35,0,0,1,1,.4,1.5,1.5,0,0,1,.4,1.08,4.51,4.51,0,0,1-.06.7,1.42,1.42,0,0,1-.3.66,1.35,1.35,0,0,1-.74.4,3.35,3.35,0,0,1-1.36,0c-.46.33-.93.7-1.42,1.1a15.94,15.94,0,0,0-1.36,1.22,8.16,8.16,0,0,0-1.06,1.22A10,10,0,0,1,67.31,11a10.91,10.91,0,0,1,1.9-.16,3.71,3.71,0,0,1,1.88.42,2.56,2.56,0,0,1,1.08,1.08,3.14,3.14,0,0,1,.36,1.5,3.35,3.35,0,0,1-.6,1.84,7,7,0,0,1-1.6,1.68,8.86,8.86,0,0,1-2.22,1.22A6.91,6.91,0,0,1,65.65,19ZM88.72,7.92a.6.6,0,0,1-.16.42,1.07,1.07,0,0,1-.4.28A11.61,11.61,0,0,1,87,9c-.56.15-1.24.31-2,.5s-1.63.38-2.54.58-1.81.37-2.72.54c-.34,1.28-.7,2.6-1.06,4s-.72,2.67-1.08,4a3,3,0,0,1-.48,1.06,1.11,1.11,0,0,1-1,.38,1,1,0,0,1-1-.48A1.86,1.86,0,0,1,75,18.24c.35-1.45.67-2.81,1-4.06s.56-2.27.74-3c-.8.13-1.5.24-2.1.32a9,9,0,0,1-1.28.08,1.09,1.09,0,0,1-.7-.34,1,1,0,0,1-.26-.74,1,1,0,0,1,.36-.68,1.38,1.38,0,0,1,.76-.36l1.6-.18L77.28,9q.27-1,.6-2.1c.23-.73.46-1.43.7-2.1s.5-1.27.72-1.78a5.53,5.53,0,0,1,.62-1.1,1.52,1.52,0,0,1,.54-.4,1.82,1.82,0,0,1,.66-.14.85.85,0,0,1,.68.3,1,1,0,0,1,.26.7,2,2,0,0,1,0,.34A1.25,1.25,0,0,1,82,3c-.25.67-.52,1.47-.82,2.42s-.57,2-.88,3.12L83.2,8.1l2.64-.44c.8-.15,1.44-.27,1.92-.38a.72.72,0,0,1,.68.06A.63.63,0,0,1,88.72,7.92ZM86.55,18.76a2,2,0,0,1-1.16-.36,2.45,2.45,0,0,1-.82-.9,2.67,2.67,0,0,1-.3-1.24,5.76,5.76,0,0,1,.54-2.42,10.12,10.12,0,0,1,1.46-2.24,15.61,15.61,0,0,1,2-1.94,17.54,17.54,0,0,1,2.14-1.54,14.6,14.6,0,0,1,2-1,4.13,4.13,0,0,1,1.4-.36,1.59,1.59,0,0,1,.94.26.84.84,0,0,1,.38.76A.42.42,0,0,1,95,8a.69.69,0,0,1,.42.3,1.28,1.28,0,0,1,.16.72c0,.13,0,.48-.1,1s-.14,1.24-.22,2-.1,1.63-.1,2.5a1,1,0,0,0,.06.36.26.26,0,0,0,.26.14,4.53,4.53,0,0,0,1.62-.32A11.19,11.19,0,0,0,98.69,14c.53-.33,1-.66,1.44-1l1.1-.82a1.56,1.56,0,0,1,.6-.34.6.6,0,0,1,.68.68,2,2,0,0,1-.44.76,13.06,13.06,0,0,1-1.16,1.3A20.47,20.47,0,0,1,99.25,16a10,10,0,0,1-1.88,1.16,4.25,4.25,0,0,1-1.86.46,2.43,2.43,0,0,1-1.68-.52,2.93,2.93,0,0,1-.8-1.4,8.81,8.81,0,0,1-.24-2,21.89,21.89,0,0,1-2.12,2.6,11.14,11.14,0,0,1-2.14,1.78A3.81,3.81,0,0,1,86.55,18.76Zm7.08-10a19.34,19.34,0,0,0-3.52,2.16,11.53,11.53,0,0,0-2.48,2.52,4.54,4.54,0,0,0-.9,2.54c0,.23.11.34.32.34a2,2,0,0,0,1-.44,10.11,10.11,0,0,0,1.38-1.16,22.07,22.07,0,0,0,1.48-1.64c.49-.61,1-1.24,1.38-1.88a11.08,11.08,0,0,0,1-1.84A4.3,4.3,0,0,1,93.63,8.74ZM103.87,23.5a14,14,0,0,1-2-.14A10.17,10.17,0,0,1,100,23a17.48,17.48,0,0,1-1.9-.74,3.5,3.5,0,0,1-.7-.42.79.79,0,0,1-.28-.66,1.2,1.2,0,0,1,.4-1,1.62,1.62,0,0,1,1.06-.32,2.45,2.45,0,0,1,.92.24l1.28.58a9.83,9.83,0,0,0,1.64.58,7.11,7.11,0,0,0,1.94.26,2.8,2.8,0,0,0,2-.88,6.2,6.2,0,0,0,1.48-2.48,10.77,10.77,0,0,0,.58-3.74c0-.33,0-.69,0-1.08s0-.82,0-1.26a22.63,22.63,0,0,1-1.56,2.54,9.7,9.7,0,0,1-1.74,1.92,2.81,2.81,0,0,1-1.78.72,2.12,2.12,0,0,1-1.6-.52,2.52,2.52,0,0,1-.48-1.7,18.68,18.68,0,0,1,.14-2.14c.11-.79.25-1.58.42-2.38s.37-1.56.6-2.28a13.63,13.63,0,0,1,.76-1.9,1,1,0,0,1,.92-.58,1.19,1.19,0,0,1,.8.38,1.3,1.3,0,0,1,.42,1,4.4,4.4,0,0,1-.18,1c-.12.45-.27,1-.44,1.54s-.33,1.15-.5,1.78-.32,1.22-.44,1.82a8.07,8.07,0,0,0-.18,1.6c0,.05,0,.08.12.08s.37-.13.64-.4a10.16,10.16,0,0,0,.92-1.08c.35-.45.69-.95,1-1.48s.71-1.09,1-1.62l.9-1.46a4.69,4.69,0,0,1-.08-.56V8a2.89,2.89,0,0,1,.28-1.36,1.21,1.21,0,0,1,1.16-.54,1,1,0,0,1,.86.42,1.89,1.89,0,0,1,.3,1.14,3.09,3.09,0,0,1-.1.74c-.07.27-.2.69-.4,1.28l.22-.62c.12,1.2.22,2.27.3,3.2s.14,1.86.14,2.78a10.6,10.6,0,0,1-.88,4.5,6.71,6.71,0,0,1-2.44,3A6.51,6.51,0,0,1,103.87,23.5ZM7.58,46.3a1.49,1.49,0,0,1-1-.38,1.6,1.6,0,0,1-.42-1.24,9.82,9.82,0,0,1,.12-1.3c.09-.56.21-1.17.36-1.82s.3-1.33.48-2,.36-1.23.54-1.74a7.08,7.08,0,0,1,.46-1.16,1.26,1.26,0,0,1,.48-.56A1,1,0,0,1,9.06,36a1.28,1.28,0,0,1,.74.24c.24.16.36.51.36,1.06a7.24,7.24,0,0,1-.12,1c-.08.47-.18,1-.3,1.64s-.26,1.27-.4,1.94-.27,1.3-.4,1.9l-.3,1.48a1.21,1.21,0,0,1-.42.74A1,1,0,0,1,7.58,46.3ZM9.88,34a2.15,2.15,0,0,1-1.22-.38,1.38,1.38,0,0,1-.56-1.22,1.68,1.68,0,0,1,.34-1.1,1.87,1.87,0,0,1,.8-.6,2.3,2.3,0,0,1,.84-.2,2.31,2.31,0,0,1,.8.16,1.58,1.58,0,0,1,.76.54,1.63,1.63,0,0,1,.34,1.1,1.37,1.37,0,0,1-.34.88,2.57,2.57,0,0,1-.84.6A2.17,2.17,0,0,1,9.88,34Zm5,12a1.75,1.75,0,0,1-1-.32,2.66,2.66,0,0,1-.76-1,3.62,3.62,0,0,1-.3-1.54,11.41,11.41,0,0,1,.32-2.56c.23-.91.5-1.81.82-2.72s.64-1.76.94-2.56a1.53,1.53,0,0,1,.54-.78,1.46,1.46,0,0,1,.84-.22,1,1,0,0,1,1.18,1.18,3.41,3.41,0,0,1-.18.78q-.18.56-.48,1.38c-.18.55-.38,1.14-.6,1.78s-.38,1.27-.56,1.92-.28,1.25-.38,1.82q.47-.71,1-1.74l1.22-2.22q.66-1.16,1.32-2.16a10.67,10.67,0,0,1,1.3-1.66,1.81,1.81,0,0,1,1.22-.64,2.26,2.26,0,0,1,.94.2,1.66,1.66,0,0,1,.8.72,4.14,4.14,0,0,1,.52,1.5,12.83,12.83,0,0,1,.2,2.58,9,9,0,0,0,.14,1.56,3.34,3.34,0,0,0,.52,1.24,1.2,1.2,0,0,0,1,.48,4.77,4.77,0,0,0,2-.42,7.43,7.43,0,0,0,1.58-1c.46-.37.84-.7,1.14-1s.35-.33.48-.44a.67.67,0,0,1,.36-.16.72.72,0,0,1,.6.22.84.84,0,0,1,.2.6,1.83,1.83,0,0,1-.34.74,9,9,0,0,1-1,1.24A12.49,12.49,0,0,1,29.2,44.2a7.79,7.79,0,0,1-1.68,1.06,4.3,4.3,0,0,1-1.84.42,5.55,5.55,0,0,1-2.62-.56,3.56,3.56,0,0,1-1.52-1.92,11.14,11.14,0,0,1-.5-3.7v-.2c0-.41,0-.78,0-1.1a4.11,4.11,0,0,0-.06-.78c-.22.41-.5.91-.82,1.48s-.64,1.19-1,1.84S18.41,42,18,42.64s-.77,1.17-1.16,1.68a7.51,7.51,0,0,1-1.08,1.22A1.47,1.47,0,0,1,14.84,46ZM53,35.92a.6.6,0,0,1-.16.42,1.07,1.07,0,0,1-.4.28,11.61,11.61,0,0,1-1.18.36c-.56.15-1.24.31-2,.5s-1.63.38-2.54.58-1.81.37-2.72.54c-.34,1.28-.7,2.6-1.06,4s-.72,2.67-1.08,4a3,3,0,0,1-.48,1.06,1.11,1.11,0,0,1-1,.38,1,1,0,0,1-1-.48,1.86,1.86,0,0,1-.06-1.26c.35-1.45.67-2.81,1-4.06s.56-2.27.74-3c-.8.13-1.5.24-2.1.32a9,9,0,0,1-1.28.08,1.09,1.09,0,0,1-.7-.34,1,1,0,0,1-.26-.74,1,1,0,0,1,.36-.68,1.38,1.38,0,0,1,.76-.36l1.6-.18L41.55,37q.27-1,.6-2.1c.23-.73.46-1.43.7-2.1s.5-1.27.72-1.78a5.53,5.53,0,0,1,.62-1.1,1.52,1.52,0,0,1,.54-.4,1.82,1.82,0,0,1,.66-.14.85.85,0,0,1,.68.3,1,1,0,0,1,.26.7,2,2,0,0,1,0,.34,1.25,1.25,0,0,1-.08.32c-.25.67-.52,1.47-.82,2.42s-.57,2-.88,3.12l2.94-.44,2.64-.44c.8-.15,1.44-.27,1.92-.38a.72.72,0,0,1,.68.06A.63.63,0,0,1,53,35.92Zm.32,10.74a2.84,2.84,0,0,1-2.28-1,4.05,4.05,0,0,1-.86-2.72,4.2,4.2,0,0,1,.14-1.1,6.38,6.38,0,0,1,.38-1,1.51,1.51,0,0,1-.2-.46,3.58,3.58,0,0,1-.06-.7,6.1,6.1,0,0,1,1.7-4.28,5.83,5.83,0,0,1,1.72-1.24,4.47,4.47,0,0,1,1.9-.44,3.55,3.55,0,0,1,2.68,1.1,4.8,4.8,0,0,1,1.06,3.42,8.2,8.2,0,0,1-.36,2.36,11.37,11.37,0,0,1-1,2.3,9.91,9.91,0,0,1-1.4,1.94,6.61,6.61,0,0,1-1.68,1.36A3.6,3.6,0,0,1,53.31,46.66ZM53,39.9a1.38,1.38,0,0,1,.1.52A1.75,1.75,0,0,1,53,41a6.5,6.5,0,0,0-.24.86,7.15,7.15,0,0,0-.12,1.5,1.42,1.42,0,0,0,.06.44c0,.11.16.16.34.16a2.16,2.16,0,0,0,1.28-.44,4.38,4.38,0,0,0,1.1-1.16,7.82,7.82,0,0,0,.84-1.6A10.21,10.21,0,0,0,56.77,39a8.69,8.69,0,0,0,.2-1.74.75.75,0,0,0-.9-.92,2.7,2.7,0,0,0-1.4.44,3.63,3.63,0,0,0-1.18,1.16A2.9,2.9,0,0,0,53,39.56C53,39.68,53,39.79,53,39.9Zm16.53,7a1.17,1.17,0,0,1-.84-.38,1.69,1.69,0,0,1-.36-1.22c0-.43,0-1,.1-1.78s.22-1.77.44-3A22.24,22.24,0,0,1,67.4,43.1a9.24,9.24,0,0,1-1.5,1.76,2.18,2.18,0,0,1-1.38.62,2.21,2.21,0,0,1-1.68-.64,3.61,3.61,0,0,1-.62-2.46,14.14,14.14,0,0,1,.14-1.94c.1-.72.24-1.44.4-2.16s.32-1.36.48-1.92a8.63,8.63,0,0,1,.46-1.28,1.42,1.42,0,0,1,.4-.56,1.06,1.06,0,0,1,.66-.2,1.2,1.2,0,0,1,1,.42,1.4,1.4,0,0,1,.34.86,4.83,4.83,0,0,1-.16,1c-.1.43-.22.9-.36,1.42s-.28,1-.42,1.6-.28,1.06-.38,1.54a6.07,6.07,0,0,0-.14,1.22c0,.41.16.62.48.62s.42-.18.72-.54a9.93,9.93,0,0,0,1-1.44c.34-.61.69-1.28,1-2s.68-1.47,1-2.22.56-1.46.78-2.1a1.58,1.58,0,0,1,.54-.84,1.29,1.29,0,0,1,.78-.24,1.38,1.38,0,0,1,1,.38,1.46,1.46,0,0,1,.38,1.08c0,.21,0,.57-.1,1.08s-.16,1.1-.26,1.78-.21,1.4-.34,2.16-.27,1.51-.4,2.24-.24,1.41-.36,2-.22,1.08-.3,1.44a1.66,1.66,0,0,1-.48,1A1.11,1.11,0,0,1,69.52,46.9Zm8.77-.34a3.53,3.53,0,0,1-3.64-3.5,7.85,7.85,0,0,1,.44-2.66,9.13,9.13,0,0,1,1.16-2.24,11.47,11.47,0,0,1,1.56-1.8,14.37,14.37,0,0,1,1.66-1.3,8.81,8.81,0,0,1,1.46-.8,2.66,2.66,0,0,1,.94-.28,1,1,0,0,1,.76.24,1,1,0,0,1,.24.74,1.11,1.11,0,0,1-.44.72,11.43,11.43,0,0,1-1.12,1c-.45.36-.93.77-1.44,1.22a15.15,15.15,0,0,0-1.46,1.52,8.38,8.38,0,0,0-1.12,1.84,5.57,5.57,0,0,0-.42,2.18,1.29,1.29,0,0,0,.16.68.69.69,0,0,0,.58.24,8.17,8.17,0,0,0,2.44-.4,20.68,20.68,0,0,0,2.62-1c.88-.43,1.71-.87,2.48-1.32s1.46-.86,2-1.22c.23-.16.42-.29.58-.38a.94.94,0,0,1,.34-.14.54.54,0,0,1,.6.62,1.53,1.53,0,0,1-.48.86,8.52,8.52,0,0,1-1.52,1.44,17.45,17.45,0,0,1-2.1,1.42,23.63,23.63,0,0,1-2.34,1.22,17,17,0,0,1-2.22.86A6.22,6.22,0,0,1,78.29,46.56Zm10.07,1A1.56,1.56,0,0,1,87,47a2.5,2.5,0,0,1-.4-1.52,11.75,11.75,0,0,1,.34-2.4c.24-1,.56-2.11.94-3.34s.85-2.51,1.34-3.82,1-2.61,1.54-3.88,1.06-2.45,1.56-3.52a2.47,2.47,0,0,1,.76-1,1.62,1.62,0,0,1,.88-.26,1.2,1.2,0,0,1,.78.26.89.89,0,0,1,.32.78,4.52,4.52,0,0,1-.32.92q-.32.78-.84,2l-1.14,2.8c-.41,1-.82,2.1-1.24,3.22s-.78,2.2-1.12,3.28-.6,2.08-.8,3c.47-.63,1-1.32,1.5-2.08s1.1-1.54,1.66-2.3,1.14-1.48,1.68-2.12A13.1,13.1,0,0,1,96,35.6,2.12,2.12,0,0,1,97.3,35a2.26,2.26,0,0,1,1.6.56,2.38,2.38,0,0,1,.62,1.88,5.9,5.9,0,0,1-.24,1.5c-.16.57-.35,1.18-.58,1.82s-.4,1.23-.56,1.82a6,6,0,0,0-.24,1.54c0,.24.12.36.34.36a5,5,0,0,0,2-.42,11,11,0,0,0,1.94-1c.63-.43,1.2-.85,1.7-1.26s.94-.78,1.26-1.06a2.11,2.11,0,0,1,.62-.42,1.34,1.34,0,0,1,.52-.12.72.72,0,0,1,.82.82,1.68,1.68,0,0,1-.06.4,1.44,1.44,0,0,1-.38.56q-.31.34-1,1t-1.5,1.32a17.8,17.8,0,0,1-1.84,1.34,12,12,0,0,1-2,1,5.5,5.5,0,0,1-2,.4A3,3,0,0,1,96,46.16a3.08,3.08,0,0,1-.8-2.24,10.15,10.15,0,0,1,.4-2.46q.41-1.5.9-3.06A19,19,0,0,0,95.06,40c-.5.61-1,1.27-1.54,2L92,44c-.49.65-1,1.25-1.42,1.8a11,11,0,0,1-1.24,1.28A1.6,1.6,0,0,1,88.36,47.56Zm21.43-6.12a.69.69,0,0,1-.5-.22,1.41,1.41,0,0,1-.2-.86,8.86,8.86,0,0,1,.16-1.38c.11-.63.25-1.35.44-2.16s.43-1.69.68-2.58.53-1.79.82-2.66.6-1.67.9-2.38a1.54,1.54,0,0,1,.68-.78,2,2,0,0,1,1-.28.87.87,0,0,1,.84.54,2.72,2.72,0,0,1,.26,1.18,3.3,3.3,0,0,1-.24.9c-.14.44-.35,1-.6,1.6s-.53,1.31-.84,2-.59,1.45-.9,2.2-.57,1.43-.82,2.1-.46,1.25-.62,1.76a1.42,1.42,0,0,1-.44.76A1,1,0,0,1,109.79,41.44Zm-1,5.58a1.61,1.61,0,0,1-.56-.12,1.13,1.13,0,0,1-.56-.58,3.49,3.49,0,0,1-.22-1.42,1.42,1.42,0,0,1,.48-1.16,1.92,1.92,0,0,1,1.28-.4,1.38,1.38,0,0,1,1,.38,1.46,1.46,0,0,1,.38,1.08,2,2,0,0,1-.32,1.14,2.41,2.41,0,0,1-.74.78A1.37,1.37,0,0,1,108.75,47Z" transform="translate(-0.08 -0.56)"/></svg>