<svg width="115" height="48" viewBox="0 0 115 48" fill="none" xmlns="http://www.w3.org/2000/svg">
<path d="M3.51727 19.04C3.02393 19.04 2.5106 18.92 1.97727 18.68C1.44393 18.4533 0.990599 18.0667 0.617266 17.52C0.257266 16.9733 0.0772658 16.2467 0.0772658 15.34C0.0772658 14.38 0.157266 13.3867 0.317266 12.36C0.490599 11.32 0.710599 10.3 0.977266 9.3C1.25727 8.28667 1.55727 7.33333 1.87727 6.44C2.2106 5.54667 2.53727 4.75333 2.85727 4.06C3.1906 3.36667 3.49727 2.82667 3.77727 2.44C4.0706 2.04 4.30393 1.84 4.47727 1.84C4.83727 1.84 5.15727 1.97333 5.43727 2.24C5.7306 2.50667 5.87727 2.91333 5.87727 3.46C5.87727 3.59333 5.79727 3.92 5.63727 4.44C5.4906 4.94667 5.29727 5.58 5.05727 6.34C4.8306 7.1 4.57727 7.92667 4.29727 8.82C4.0306 9.7 3.77727 10.5933 3.53727 11.5C3.3106 12.4067 3.11727 13.26 2.95727 14.06C2.8106 14.86 2.73727 15.5467 2.73727 16.12C2.73727 16.28 2.8306 16.36 3.01727 16.36C3.28393 16.36 3.67727 16.2933 4.19727 16.16C4.7306 16.0267 5.3106 15.86 5.93727 15.66C6.57727 15.4467 7.1906 15.24 7.77727 15.04C8.36393 14.84 8.86393 14.6733 9.27727 14.54C9.6906 14.4067 9.92393 14.34 9.97727 14.34C10.3106 14.34 10.5773 14.4333 10.7773 14.62C10.9773 14.8067 11.0773 15.0733 11.0773 15.42C11.0773 15.66 10.9173 15.94 10.5973 16.26C10.2773 16.5667 9.8506 16.8867 9.31727 17.22C8.78393 17.54 8.18393 17.8333 7.51727 18.1C6.86393 18.38 6.1906 18.6067 5.49727 18.78C4.80393 18.9533 4.14393 19.04 3.51727 19.04ZM40.3841 8.48C40.3841 8.66667 40.1308 8.87333 39.6241 9.1C39.1175 9.32667 38.4375 9.56667 37.5841 9.82C36.7441 10.06 35.8041 10.3 34.7641 10.54C33.7241 10.7667 32.6708 10.9733 31.6041 11.16C31.2308 12.4 30.8641 13.6533 30.5041 14.92C30.1441 16.1733 29.8308 17.3467 29.5641 18.44C29.4975 18.7333 29.3441 18.9533 29.1041 19.1C28.8775 19.2467 28.6308 19.32 28.3641 19.32C28.0308 19.32 27.7575 19.2267 27.5441 19.04C27.3308 18.8667 27.2241 18.64 27.2241 18.36C27.2241 17.88 27.3575 17.1133 27.6241 16.06C27.8908 15.0067 28.2108 13.8133 28.5841 12.48C27.9708 13.36 27.3508 14.1667 26.7241 14.9C26.0975 15.6333 25.5041 16.2333 24.9441 16.7C24.0641 17.42 23.1508 17.9933 22.2041 18.42C21.2708 18.86 20.3375 19.08 19.4041 19.08C17.9108 19.08 16.8241 18.7067 16.1441 17.96C15.4641 17.2133 15.1241 16.1067 15.1241 14.64C15.1241 13.8 15.2175 12.9667 15.4041 12.14C15.6041 11.3 15.8708 10.5133 16.2041 9.78C16.5375 9.03333 16.9175 8.37333 17.3441 7.8C17.7708 7.22667 18.2175 6.78 18.6841 6.46C19.1508 6.12667 19.6175 5.96 20.0841 5.96C21.2308 5.96 22.0641 6.26667 22.5841 6.88C23.1175 7.48 23.3841 8.22 23.3841 9.1C23.3841 9.7 23.2108 10.2733 22.8641 10.82C22.5308 11.3667 22.0841 11.8733 21.5241 12.34C20.9641 12.7933 20.3375 13.18 19.6441 13.5C18.9641 13.82 18.2775 14.0533 17.5841 14.2C17.5841 14.2933 17.5841 14.3933 17.5841 14.5C17.5841 15.3533 17.7441 15.94 18.0641 16.26C18.3975 16.58 18.9308 16.74 19.6641 16.74C20.8775 16.74 22.0841 16.34 23.2841 15.54C24.4975 14.7267 25.6975 13.4867 26.8841 11.82C26.3375 11.86 25.8641 11.88 25.4641 11.88C24.8908 11.88 24.5175 11.7933 24.3441 11.62C24.1841 11.4333 24.1041 11.1733 24.1041 10.84C24.1041 10.7333 24.1508 10.6067 24.2441 10.46C24.3508 10.3 24.4775 10.16 24.6241 10.04C24.7841 9.90667 24.9508 9.84 25.1241 9.84C25.6975 9.78667 26.2508 9.73333 26.7841 9.68C27.3308 9.62667 27.8508 9.56667 28.3441 9.5C29.2641 7.92667 30.1575 6.10667 31.0241 4.04C31.3975 2.98667 31.7841 2.14667 32.1841 1.52C32.5975 0.879999 33.0241 0.559999 33.4641 0.559999C33.6908 0.559999 33.8975 0.653333 34.0841 0.839999C34.2841 1.01333 34.3841 1.29333 34.3841 1.68C34.3841 1.85333 34.2841 2.28667 34.0841 2.98C33.8975 3.66 33.6441 4.52 33.3241 5.56C33.0041 6.6 32.6575 7.73333 32.2841 8.96C34.4308 8.61333 36.0908 8.3 37.2641 8.02C38.4375 7.72667 39.1775 7.58 39.4841 7.58C39.7641 7.58 39.9841 7.67333 40.1441 7.86C40.3041 8.04667 40.3841 8.25333 40.3841 8.48ZM17.8641 12.22C18.3841 11.94 18.8841 11.62 19.3641 11.26C19.8441 10.8867 20.2375 10.5133 20.5441 10.14C20.8508 9.75333 21.0041 9.38667 21.0041 9.04C21.0041 8.73333 20.9441 8.51333 20.8241 8.38C20.7175 8.24667 20.4975 8.18 20.1641 8.18C19.8708 8.18 19.5775 8.37333 19.2841 8.76C18.9908 9.14667 18.7175 9.65333 18.4641 10.28C18.2241 10.8933 18.0241 11.54 17.8641 12.22ZM38.2546 10.18C38.0013 10.18 37.8079 10.1133 37.6746 9.98C37.5413 9.84667 37.4746 9.61333 37.4746 9.28C37.4746 9.08 37.5346 8.87333 37.6546 8.66C37.7879 8.44667 37.9346 8.19333 38.0946 7.9C38.2546 7.60667 38.3946 7.25333 38.5146 6.84C38.6479 6.42667 38.7146 5.93333 38.7146 5.36C38.7146 5.17333 38.7013 4.98667 38.6746 4.8C38.6613 4.6 38.6546 4.41333 38.6546 4.24C38.6546 2.85333 39.0946 2.16 39.9746 2.16C40.3746 2.16 40.7013 2.3 40.9546 2.58C41.2079 2.86 41.3346 3.42 41.3346 4.26C41.3346 5.19333 41.2213 6.02667 40.9946 6.76C40.7679 7.49333 40.4879 8.11333 40.1546 8.62C39.8213 9.12667 39.4813 9.51333 39.1346 9.78C38.7879 10.0467 38.4946 10.18 38.2546 10.18ZM44.2418 19.02C43.6685 19.02 43.2618 18.94 43.0218 18.78C42.7951 18.62 42.6818 18.3867 42.6818 18.08C42.6818 17.8133 42.7751 17.5867 42.9618 17.4C43.1485 17.2 43.5618 17 44.2018 16.8C44.9485 16.5733 45.6551 16.3133 46.3218 16.02C47.0018 15.7133 47.5551 15.38 47.9818 15.02C48.4218 14.66 48.6418 14.28 48.6418 13.88C48.6418 13.6133 48.5485 13.42 48.3618 13.3C48.1885 13.18 47.9818 13.12 47.7418 13.12C47.5418 13.12 47.2485 13.1533 46.8618 13.22C46.4885 13.2733 46.0751 13.3467 45.6218 13.44C45.1685 13.52 44.7285 13.5933 44.3018 13.66C43.8885 13.7133 43.5351 13.74 43.2418 13.74C42.5485 13.74 42.0351 13.5867 41.7018 13.28C41.3685 12.96 41.2018 12.5533 41.2018 12.06C41.2018 11.7933 41.3418 11.4267 41.6218 10.96C41.9018 10.4933 42.2751 9.98 42.7418 9.42C43.2085 8.86 43.7285 8.3 44.3018 7.74C44.8751 7.18 45.4551 6.66667 46.0418 6.2C46.6418 5.72 47.2085 5.34 47.7418 5.06C48.2751 4.76667 48.7285 4.62 49.1018 4.62C49.5285 4.62 49.8685 4.75333 50.1218 5.02C50.3885 5.28667 50.5218 5.64667 50.5218 6.1C50.5218 6.31333 50.5018 6.54667 50.4618 6.8C50.4218 7.04 50.3218 7.26 50.1618 7.46C50.0018 7.64667 49.7551 7.78 49.4218 7.86C49.0885 7.94 48.6351 7.92667 48.0618 7.82C47.6085 8.15333 47.1351 8.52 46.6418 8.92C46.1618 9.30667 45.7085 9.71333 45.2818 10.14C44.8551 10.5533 44.5018 10.96 44.2218 11.36C44.7151 11.2 45.2751 11.0733 45.9018 10.98C46.5285 10.8733 47.1618 10.82 47.8018 10.82C48.5751 10.82 49.2018 10.96 49.6818 11.24C50.1751 11.5067 50.5351 11.8667 50.7618 12.32C51.0018 12.7733 51.1218 13.2733 51.1218 13.82C51.1218 14.4333 50.9218 15.0467 50.5218 15.66C50.1218 16.2733 49.5885 16.8333 48.9218 17.34C48.2551 17.8467 47.5151 18.2533 46.7018 18.56C45.8885 18.8667 45.0685 19.02 44.2418 19.02ZM65.648 19.02C65.0747 19.02 64.668 18.94 64.428 18.78C64.2014 18.62 64.088 18.3867 64.088 18.08C64.088 17.8133 64.1814 17.5867 64.368 17.4C64.5547 17.2 64.968 17 65.608 16.8C66.3547 16.5733 67.0614 16.3133 67.728 16.02C68.408 15.7133 68.9614 15.38 69.388 15.02C69.828 14.66 70.048 14.28 70.048 13.88C70.048 13.6133 69.9547 13.42 69.768 13.3C69.5947 13.18 69.388 13.12 69.148 13.12C68.948 13.12 68.6547 13.1533 68.268 13.22C67.8947 13.2733 67.4814 13.3467 67.028 13.44C66.5747 13.52 66.1347 13.5933 65.708 13.66C65.2947 13.7133 64.9414 13.74 64.648 13.74C63.9547 13.74 63.4414 13.5867 63.108 13.28C62.7747 12.96 62.608 12.5533 62.608 12.06C62.608 11.7933 62.748 11.4267 63.028 10.96C63.308 10.4933 63.6814 9.98 64.148 9.42C64.6147 8.86 65.1347 8.3 65.708 7.74C66.2814 7.18 66.8614 6.66667 67.448 6.2C68.048 5.72 68.6147 5.34 69.148 5.06C69.6814 4.76667 70.1347 4.62 70.508 4.62C70.9347 4.62 71.2747 4.75333 71.528 5.02C71.7947 5.28667 71.928 5.64667 71.928 6.1C71.928 6.31333 71.908 6.54667 71.868 6.8C71.828 7.04 71.728 7.26 71.568 7.46C71.408 7.64667 71.1614 7.78 70.828 7.86C70.4947 7.94 70.0414 7.92667 69.468 7.82C69.0147 8.15333 68.5414 8.52 68.048 8.92C67.568 9.30667 67.1147 9.71333 66.688 10.14C66.2614 10.5533 65.908 10.96 65.628 11.36C66.1214 11.2 66.6814 11.0733 67.308 10.98C67.9347 10.8733 68.568 10.82 69.208 10.82C69.9814 10.82 70.608 10.96 71.088 11.24C71.5814 11.5067 71.9414 11.8667 72.168 12.32C72.408 12.7733 72.528 13.2733 72.528 13.82C72.528 14.4333 72.328 15.0467 71.928 15.66C71.528 16.2733 70.9947 16.8333 70.328 17.34C69.6614 17.8467 68.9214 18.2533 68.108 18.56C67.2947 18.8667 66.4747 19.02 65.648 19.02ZM88.7249 7.92C88.7249 8.08 88.6716 8.22 88.5649 8.34C88.4583 8.46 88.3249 8.55333 88.1649 8.62C87.9383 8.71333 87.5449 8.83333 86.9849 8.98C86.4249 9.12667 85.7449 9.29333 84.9449 9.48C84.1583 9.66667 83.3116 9.86 82.4049 10.06C81.4983 10.2467 80.5916 10.4267 79.6849 10.6C79.3383 11.88 78.9849 13.2 78.6249 14.56C78.2649 15.9067 77.9049 17.2333 77.5449 18.54C77.4116 19.0067 77.2516 19.36 77.0649 19.6C76.8783 19.8533 76.5583 19.98 76.1049 19.98C75.6116 19.98 75.2783 19.82 75.1049 19.5C74.9449 19.1933 74.9249 18.7733 75.0449 18.24C75.3916 16.7867 75.7116 15.4333 76.0049 14.18C76.3116 12.9267 76.5583 11.9133 76.7449 11.14C75.9449 11.2733 75.2449 11.38 74.6449 11.46C74.0449 11.5267 73.6183 11.5533 73.3649 11.54C73.0849 11.5133 72.8516 11.4 72.6649 11.2C72.4783 11 72.3916 10.7533 72.4049 10.46C72.4316 10.1933 72.5516 9.96667 72.7649 9.78C72.9783 9.58 73.2316 9.46 73.5249 9.42C73.9383 9.38 74.4716 9.32 75.1249 9.24C75.7783 9.16 76.4983 9.06667 77.2849 8.96C77.4583 8.28 77.6583 7.58 77.8849 6.86C78.1116 6.12667 78.3449 5.42667 78.5849 4.76C78.8383 4.08 79.0783 3.48667 79.3049 2.98C79.5316 2.47333 79.7383 2.10667 79.9249 1.88C80.0716 1.70667 80.2516 1.57333 80.4649 1.48C80.6916 1.38667 80.9116 1.34 81.1249 1.34C81.4049 1.34 81.6316 1.44 81.8049 1.64C81.9783 1.84 82.0649 2.07333 82.0649 2.34C82.0649 2.44667 82.0583 2.56 82.0449 2.68C82.0316 2.78667 82.0049 2.89333 81.9649 3C81.7116 3.66667 81.4383 4.47333 81.1449 5.42C80.8649 6.36667 80.5716 7.40667 80.2649 8.54C81.2649 8.39333 82.2449 8.24667 83.2049 8.1C84.1783 7.94 85.0583 7.79333 85.8449 7.66C86.6449 7.51333 87.2849 7.38667 87.7649 7.28C88.0316 7.18667 88.2583 7.20667 88.4449 7.34C88.6316 7.46 88.7249 7.65333 88.7249 7.92ZM86.5501 18.76C86.1234 18.76 85.7367 18.64 85.3901 18.4C85.0434 18.1733 84.7701 17.8733 84.5701 17.5C84.3701 17.1133 84.2701 16.7 84.2701 16.26C84.2701 15.4333 84.4501 14.6267 84.8101 13.84C85.1834 13.0533 85.6701 12.3067 86.2701 11.6C86.8701 10.8933 87.5234 10.2467 88.2301 9.66C88.9501 9.06 89.6634 8.54667 90.3701 8.12C91.0901 7.69333 91.7434 7.36 92.3301 7.12C92.9301 6.88 93.3967 6.76 93.7301 6.76C94.1167 6.76 94.4301 6.84667 94.6701 7.02C94.9234 7.18 95.0501 7.43333 95.0501 7.78C95.0501 7.88667 95.0234 7.97333 94.9701 8.04C95.1434 8.08 95.2834 8.18 95.3901 8.34C95.4967 8.5 95.5501 8.74 95.5501 9.06C95.5501 9.19333 95.5167 9.54 95.4501 10.1C95.3834 10.66 95.3101 11.34 95.2301 12.14C95.1634 12.94 95.1301 13.7733 95.1301 14.64C95.1301 14.7733 95.1501 14.8933 95.1901 15C95.2301 15.0933 95.3167 15.14 95.4501 15.14C95.9834 15.14 96.5234 15.0333 97.0701 14.82C97.6301 14.5933 98.1701 14.32 98.6901 14C99.2234 13.6667 99.7034 13.34 100.13 13.02C100.57 12.6867 100.937 12.4133 101.23 12.2C101.537 11.9733 101.737 11.86 101.83 11.86C102.283 11.86 102.51 12.0867 102.51 12.54C102.51 12.66 102.363 12.9133 102.07 13.3C101.79 13.6733 101.403 14.1067 100.91 14.6C100.417 15.08 99.8634 15.56 99.2501 16.04C98.6501 16.5067 98.0234 16.8933 97.3701 17.2C96.7301 17.5067 96.1101 17.66 95.5101 17.66C94.7767 17.66 94.2167 17.4867 93.8301 17.14C93.4567 16.7933 93.1901 16.3267 93.0301 15.74C92.8834 15.14 92.8034 14.4667 92.7901 13.72C92.1101 14.6933 91.4034 15.56 90.6701 16.32C89.9501 17.0667 89.2367 17.66 88.5301 18.1C87.8234 18.54 87.1634 18.76 86.5501 18.76ZM93.6301 8.74C92.3234 9.36667 91.1501 10.0867 90.1101 10.9C89.0701 11.7 88.2434 12.54 87.6301 13.42C87.0301 14.3 86.7301 15.1467 86.7301 15.96C86.7301 16.1867 86.8367 16.3 87.0501 16.3C87.3034 16.3 87.6367 16.1533 88.0501 15.86C88.4767 15.5667 88.9367 15.18 89.4301 14.7C89.9234 14.2067 90.4167 13.66 90.9101 13.06C91.4034 12.4467 91.8634 11.82 92.2901 11.18C92.7167 10.54 93.0567 9.92667 93.3101 9.34C93.4034 9.12667 93.5101 8.92667 93.6301 8.74ZM103.87 23.5C103.124 23.5 102.444 23.4533 101.83 23.36C101.217 23.28 100.617 23.1467 100.03 22.96C99.4437 22.7733 98.8104 22.5267 98.1304 22.22C97.8504 22.0867 97.6171 21.9467 97.4304 21.8C97.2437 21.6533 97.1504 21.4333 97.1504 21.14C97.1504 20.7133 97.2837 20.3867 97.5504 20.16C97.8037 19.9467 98.1571 19.84 98.6104 19.84C98.8504 19.84 99.1571 19.92 99.5304 20.08C99.9037 20.2533 100.33 20.4467 100.81 20.66C101.304 20.8867 101.85 21.08 102.45 21.24C103.05 21.4133 103.697 21.5 104.39 21.5C105.097 21.5 105.757 21.2067 106.37 20.62C106.984 20.0333 107.477 19.2067 107.85 18.14C108.237 17.0867 108.43 15.84 108.43 14.4C108.43 14.0667 108.424 13.7067 108.41 13.32C108.397 12.92 108.384 12.5 108.37 12.06C107.89 12.9667 107.37 13.8133 106.81 14.6C106.25 15.3867 105.67 16.0267 105.07 16.52C104.484 17 103.89 17.24 103.29 17.24C102.557 17.24 102.024 17.0667 101.69 16.72C101.37 16.36 101.21 15.7933 101.21 15.02C101.21 14.3667 101.257 13.6533 101.35 12.88C101.457 12.0933 101.597 11.3 101.77 10.5C101.944 9.7 102.144 8.94 102.37 8.22C102.61 7.48667 102.864 6.85333 103.13 6.32C103.33 5.93333 103.637 5.74 104.05 5.74C104.317 5.74 104.584 5.86667 104.85 6.12C105.13 6.37333 105.27 6.71333 105.27 7.14C105.27 7.38 105.21 7.72667 105.09 8.18C104.97 8.63333 104.824 9.14667 104.65 9.72C104.49 10.28 104.324 10.8733 104.15 11.5C103.977 12.1133 103.83 12.72 103.71 13.32C103.59 13.9067 103.53 14.44 103.53 14.92C103.53 14.9733 103.57 15 103.65 15C103.81 15 104.024 14.8667 104.29 14.6C104.57 14.32 104.877 13.96 105.21 13.52C105.557 13.0667 105.904 12.5733 106.25 12.04C106.61 11.4933 106.957 10.9533 107.29 10.42C107.624 9.88667 107.924 9.4 108.19 8.96C108.15 8.74667 108.124 8.56 108.11 8.4C108.11 8.22667 108.11 8.08 108.11 7.96C108.11 7.41333 108.204 6.96 108.39 6.6C108.59 6.24 108.977 6.06 109.55 6.06C109.924 6.06 110.21 6.2 110.41 6.48C110.61 6.74667 110.71 7.12667 110.71 7.62C110.71 7.83333 110.677 8.08 110.61 8.36C110.544 8.62667 110.41 9.05333 110.21 9.64L110.43 9.02C110.55 10.22 110.65 11.2867 110.73 12.22C110.824 13.1533 110.87 14.08 110.87 15C110.87 16.7333 110.577 18.2333 109.99 19.5C109.417 20.78 108.604 21.7667 107.55 22.46C106.51 23.1533 105.284 23.5 103.87 23.5ZM7.57531 46.3C7.20198 46.3 6.86865 46.1733 6.57531 45.92C6.29531 45.6667 6.15531 45.2533 6.15531 44.68C6.15531 44.3733 6.19531 43.94 6.27531 43.38C6.36865 42.82 6.48865 42.2133 6.63531 41.56C6.78198 40.8933 6.94198 40.2333 7.11531 39.58C7.30198 38.9267 7.48198 38.3467 7.65531 37.84C7.82865 37.32 7.98198 36.9333 8.11531 36.68C8.28865 36.3733 8.44865 36.1867 8.59531 36.12C8.75531 36.04 8.90865 36 9.05531 36C9.32198 36 9.56865 36.08 9.79531 36.24C10.0353 36.4 10.1553 36.7533 10.1553 37.3C10.1553 37.5133 10.1153 37.86 10.0353 38.34C9.95531 38.8067 9.85531 39.3533 9.73531 39.98C9.61531 40.6067 9.48198 41.2533 9.33531 41.92C9.20198 42.5867 9.06865 43.22 8.93531 43.82C8.81531 44.4067 8.71531 44.9 8.63531 45.3C8.56865 45.6333 8.42865 45.88 8.21531 46.04C8.01531 46.2133 7.80198 46.3 7.57531 46.3ZM9.87531 34.02C9.43531 34.02 9.02865 33.8933 8.65531 33.64C8.28198 33.3733 8.09531 32.9667 8.09531 32.42C8.09531 31.9667 8.20865 31.6 8.43531 31.32C8.66198 31.04 8.92865 30.84 9.23531 30.72C9.55531 30.5867 9.83531 30.52 10.0753 30.52C10.3153 30.52 10.582 30.5733 10.8753 30.68C11.1686 30.7733 11.422 30.9533 11.6353 31.22C11.862 31.4733 11.9753 31.84 11.9753 32.32C11.9753 32.64 11.862 32.9333 11.6353 33.2C11.4086 33.4533 11.1286 33.6533 10.7953 33.8C10.4753 33.9467 10.1686 34.02 9.87531 34.02ZM14.8425 46C14.5225 46 14.2025 45.8933 13.8825 45.68C13.5758 45.4533 13.3225 45.1333 13.1225 44.72C12.9225 44.2933 12.8225 43.78 12.8225 43.18C12.8225 42.38 12.9292 41.5267 13.1425 40.62C13.3692 39.7133 13.6425 38.8067 13.9625 37.9C14.2825 36.9933 14.5958 36.14 14.9025 35.34C15.0492 34.9533 15.2292 34.6933 15.4425 34.56C15.6558 34.4133 15.9358 34.34 16.2825 34.34C17.0692 34.34 17.4625 34.7333 17.4625 35.52C17.4625 35.6533 17.4025 35.9133 17.2825 36.3C17.1625 36.6733 17.0025 37.1333 16.8025 37.68C16.6158 38.2267 16.4158 38.82 16.2025 39.46C16.0025 40.0867 15.8158 40.7267 15.6425 41.38C15.4825 42.02 15.3558 42.6267 15.2625 43.2C15.5692 42.7333 15.9092 42.1533 16.2825 41.46C16.6692 40.7533 17.0758 40.0133 17.5025 39.24C17.9425 38.4667 18.3825 37.7467 18.8225 37.08C19.2625 36.4 19.6958 35.8467 20.1225 35.42C20.5492 34.9933 20.9558 34.78 21.3425 34.78C21.6758 34.78 21.9892 34.8467 22.2825 34.98C22.5892 35.1 22.8558 35.34 23.0825 35.7C23.3092 36.0467 23.4825 36.5467 23.6025 37.2C23.7358 37.8533 23.8025 38.7133 23.8025 39.78C23.8025 40.3133 23.8492 40.8333 23.9425 41.34C24.0492 41.8333 24.2225 42.2467 24.4625 42.58C24.7025 42.9 25.0425 43.06 25.4825 43.06C26.2425 43.06 26.9225 42.92 27.5225 42.64C28.1225 42.36 28.6492 42.0333 29.1025 41.66C29.5558 41.2867 29.9358 40.96 30.2425 40.68C30.4292 40.4933 30.5892 40.3467 30.7225 40.24C30.8692 40.1333 30.9892 40.08 31.0825 40.08C31.3625 40.08 31.5625 40.1533 31.6825 40.3C31.8158 40.4467 31.8825 40.6467 31.8825 40.9C31.8825 41.0333 31.7692 41.28 31.5425 41.64C31.3158 42 30.9958 42.4133 30.5825 42.88C30.1825 43.3333 29.7225 43.7733 29.2025 44.2C28.6825 44.6267 28.1225 44.98 27.5225 45.26C26.9225 45.54 26.3092 45.68 25.6825 45.68C24.6292 45.68 23.7558 45.4933 23.0625 45.12C22.3825 44.7333 21.8758 44.0933 21.5425 43.2C21.2092 42.2933 21.0425 41.06 21.0425 39.5C21.0425 39.46 21.0425 39.3933 21.0425 39.3C21.0425 38.8867 21.0358 38.52 21.0225 38.2C21.0225 37.88 21.0025 37.62 20.9625 37.42C20.7358 37.8333 20.4625 38.3267 20.1425 38.9C19.8358 39.4733 19.5025 40.0867 19.1425 40.74C18.7825 41.38 18.4092 42.0133 18.0225 42.64C17.6358 43.2533 17.2492 43.8133 16.8625 44.32C16.4892 44.8267 16.1292 45.2333 15.7825 45.54C15.4358 45.8467 15.1225 46 14.8425 46ZM52.9925 35.92C52.9925 36.08 52.9392 36.22 52.8325 36.34C52.7258 36.46 52.5925 36.5533 52.4325 36.62C52.2058 36.7133 51.8125 36.8333 51.2525 36.98C50.6925 37.1267 50.0125 37.2933 49.2125 37.48C48.4258 37.6667 47.5792 37.86 46.6725 38.06C45.7658 38.2467 44.8592 38.4267 43.9525 38.6C43.6058 39.88 43.2525 41.2 42.8925 42.56C42.5325 43.9067 42.1725 45.2333 41.8125 46.54C41.6792 47.0067 41.5192 47.36 41.3325 47.6C41.1458 47.8533 40.8258 47.98 40.3725 47.98C39.8792 47.98 39.5458 47.82 39.3725 47.5C39.2125 47.1933 39.1925 46.7733 39.3125 46.24C39.6592 44.7867 39.9792 43.4333 40.2725 42.18C40.5792 40.9267 40.8258 39.9133 41.0125 39.14C40.2125 39.2733 39.5125 39.38 38.9125 39.46C38.3125 39.5267 37.8858 39.5533 37.6325 39.54C37.3525 39.5133 37.1192 39.4 36.9325 39.2C36.7458 39 36.6592 38.7533 36.6725 38.46C36.6992 38.1933 36.8192 37.9667 37.0325 37.78C37.2458 37.58 37.4992 37.46 37.7925 37.42C38.2058 37.38 38.7392 37.32 39.3925 37.24C40.0458 37.16 40.7658 37.0667 41.5525 36.96C41.7258 36.28 41.9258 35.58 42.1525 34.86C42.3792 34.1267 42.6125 33.4267 42.8525 32.76C43.1058 32.08 43.3458 31.4867 43.5725 30.98C43.7992 30.4733 44.0058 30.1067 44.1925 29.88C44.3392 29.7067 44.5192 29.5733 44.7325 29.48C44.9592 29.3867 45.1792 29.34 45.3925 29.34C45.6725 29.34 45.8992 29.44 46.0725 29.64C46.2458 29.84 46.3325 30.0733 46.3325 30.34C46.3325 30.4467 46.3258 30.56 46.3125 30.68C46.2992 30.7867 46.2725 30.8933 46.2325 31C45.9792 31.6667 45.7058 32.4733 45.4125 33.42C45.1325 34.3667 44.8392 35.4067 44.5325 36.54C45.5325 36.3933 46.5125 36.2467 47.4725 36.1C48.4458 35.94 49.3258 35.7933 50.1125 35.66C50.9125 35.5133 51.5525 35.3867 52.0325 35.28C52.2992 35.1867 52.5258 35.2067 52.7125 35.34C52.8992 35.46 52.9925 35.6533 52.9925 35.92ZM53.3063 46.66C52.3596 46.66 51.5996 46.3267 51.0263 45.66C50.4529 44.98 50.1663 44.0733 50.1663 42.94C50.1663 42.58 50.2129 42.2133 50.3063 41.84C50.4129 41.4667 50.5396 41.12 50.6863 40.8C50.6063 40.68 50.5396 40.5267 50.4863 40.34C50.4463 40.14 50.4263 39.9067 50.4263 39.64C50.4263 38.7733 50.5796 37.98 50.8863 37.26C51.1929 36.5267 51.6063 35.8933 52.1263 35.36C52.6463 34.8267 53.2196 34.4133 53.8463 34.12C54.4729 33.8267 55.1063 33.68 55.7463 33.68C56.8396 33.68 57.7329 34.0467 58.4263 34.78C59.1329 35.5133 59.4863 36.6533 59.4863 38.2C59.4863 38.9733 59.3663 39.76 59.1263 40.56C58.8863 41.36 58.5596 42.1267 58.1463 42.86C57.7463 43.58 57.2796 44.2267 56.7463 44.8C56.2263 45.3733 55.6663 45.8267 55.0663 46.16C54.4796 46.4933 53.8929 46.66 53.3063 46.66ZM52.9863 39.9C53.0529 40.0467 53.0863 40.22 53.0863 40.42C53.0863 40.62 53.0463 40.8267 52.9663 41.04C52.8863 41.2533 52.8063 41.54 52.7263 41.9C52.6463 42.2467 52.6063 42.7467 52.6063 43.4C52.6063 43.5733 52.6263 43.72 52.6663 43.84C52.7196 43.9467 52.8329 44 53.0063 44C53.4596 44 53.8863 43.8533 54.2863 43.56C54.6996 43.2667 55.0663 42.88 55.3863 42.4C55.7196 41.92 55.9996 41.3867 56.2263 40.8C56.4663 40.2 56.6463 39.5933 56.7663 38.98C56.8996 38.3533 56.9663 37.7733 56.9663 37.24C56.9663 36.8933 56.8996 36.6533 56.7663 36.52C56.6329 36.3867 56.3996 36.32 56.0663 36.32C55.6129 36.32 55.1463 36.4667 54.6663 36.76C54.1996 37.04 53.8063 37.4267 53.4863 37.92C53.1663 38.4 53.0063 38.9467 53.0063 39.56C53.0063 39.68 52.9996 39.7933 52.9863 39.9ZM69.5167 46.9C69.2101 46.9 68.9301 46.7733 68.6767 46.52C68.4367 46.28 68.3167 45.8733 68.3167 45.3C68.3167 44.8733 68.3501 44.28 68.4167 43.52C68.4967 42.7467 68.6434 41.7533 68.8567 40.54C68.3901 41.5 67.9034 42.3533 67.3967 43.1C66.8901 43.8467 66.3901 44.4333 65.8967 44.86C65.4167 45.2733 64.9567 45.48 64.5167 45.48C63.8101 45.48 63.2501 45.2667 62.8367 44.84C62.4234 44.4 62.2167 43.58 62.2167 42.38C62.2167 41.8067 62.2634 41.16 62.3567 40.44C62.4634 39.72 62.5967 39 62.7567 38.28C62.9167 37.56 63.0767 36.92 63.2367 36.36C63.4101 35.7867 63.5634 35.36 63.6967 35.08C63.8034 34.84 63.9367 34.6533 64.0967 34.52C64.2701 34.3867 64.4901 34.32 64.7567 34.32C65.1834 34.32 65.5101 34.46 65.7367 34.74C65.9634 35.02 66.0767 35.3067 66.0767 35.6C66.0767 35.8267 66.0234 36.1533 65.9167 36.58C65.8234 37.0067 65.7034 37.48 65.5567 38C65.4234 38.52 65.2834 39.0533 65.1367 39.6C64.9901 40.1467 64.8634 40.66 64.7567 41.14C64.6634 41.62 64.6167 42.0267 64.6167 42.36C64.6167 42.7733 64.7767 42.98 65.0967 42.98C65.2834 42.98 65.5234 42.8 65.8167 42.44C66.1234 42.08 66.4434 41.6 66.7767 41C67.1234 40.3867 67.4701 39.72 67.8167 39C68.1767 38.2667 68.5034 37.5267 68.7967 36.78C69.1034 36.02 69.3634 35.32 69.5767 34.68C69.7101 34.28 69.8901 34 70.1167 33.84C70.3434 33.68 70.6034 33.6 70.8967 33.6C71.3501 33.6 71.6967 33.7267 71.9367 33.98C72.1901 34.2333 72.3167 34.5933 72.3167 35.06C72.3167 35.2733 72.2834 35.6333 72.2167 36.14C72.1501 36.6467 72.0634 37.24 71.9567 37.92C71.8634 38.6 71.7501 39.32 71.6167 40.08C71.4834 40.84 71.3501 41.5867 71.2167 42.32C71.0967 43.0533 70.9767 43.7267 70.8567 44.34C70.7367 44.94 70.6367 45.42 70.5567 45.78C70.4234 46.3133 70.2634 46.6333 70.0767 46.74C69.8901 46.8467 69.7034 46.9 69.5167 46.9ZM78.292 46.56C77.5454 46.56 76.8987 46.3867 76.352 46.04C75.8054 45.7067 75.3854 45.2733 75.092 44.74C74.7987 44.1933 74.652 43.6333 74.652 43.06C74.652 42.1 74.7987 41.2133 75.092 40.4C75.3854 39.5733 75.772 38.8267 76.252 38.16C76.732 37.48 77.252 36.88 77.812 36.36C78.3854 35.84 78.9387 35.4067 79.472 35.06C80.0187 34.7 80.5054 34.4333 80.932 34.26C81.3587 34.0733 81.672 33.98 81.872 33.98C82.232 33.98 82.4854 34.06 82.632 34.22C82.792 34.3667 82.872 34.6133 82.872 34.96C82.872 35.16 82.7254 35.4 82.432 35.68C82.152 35.96 81.7787 36.28 81.312 36.64C80.8587 37 80.3787 37.4067 79.872 37.86C79.3654 38.3133 78.8787 38.82 78.412 39.38C77.9587 39.94 77.5854 40.5533 77.292 41.22C77.012 41.8867 76.872 42.6133 76.872 43.4C76.872 43.6933 76.9254 43.92 77.032 44.08C77.152 44.24 77.3454 44.32 77.612 44.32C78.372 44.32 79.1854 44.1867 80.052 43.92C80.932 43.64 81.8054 43.2933 82.672 42.88C83.552 42.4533 84.3787 42.0133 85.152 41.56C85.9387 41.1067 86.612 40.7 87.172 40.34C87.3987 40.18 87.592 40.0533 87.752 39.96C87.912 39.8667 88.0254 39.82 88.092 39.82C88.492 39.82 88.692 40.0267 88.692 40.44C88.692 40.6533 88.532 40.94 88.212 41.3C87.8387 41.7667 87.332 42.2467 86.692 42.74C86.0654 43.2333 85.3654 43.7067 84.592 44.16C83.832 44.6133 83.052 45.02 82.252 45.38C81.4654 45.74 80.7254 46.0267 80.032 46.24C79.3387 46.4533 78.7587 46.56 78.292 46.56ZM88.3617 47.56C87.7484 47.56 87.3084 47.3867 87.0417 47.04C86.7751 46.6933 86.6417 46.1867 86.6417 45.52C86.6417 44.9067 86.7551 44.1067 86.9817 43.12C87.2217 42.12 87.5351 41.0067 87.9217 39.78C88.3217 38.54 88.7684 37.2667 89.2617 35.96C89.7551 34.64 90.2684 33.3467 90.8017 32.08C91.3351 30.8 91.8551 29.6267 92.3617 28.56C92.6017 28.0933 92.8551 27.7733 93.1217 27.6C93.3884 27.4267 93.6817 27.34 94.0017 27.34C94.3084 27.34 94.5684 27.4267 94.7817 27.6C94.9951 27.76 95.1017 28.02 95.1017 28.38C95.1017 28.46 94.9951 28.7667 94.7817 29.3C94.5684 29.82 94.2884 30.5 93.9417 31.34C93.5951 32.1667 93.2151 33.1 92.8017 34.14C92.3884 35.1667 91.9751 36.24 91.5617 37.36C91.1484 38.4667 90.7751 39.56 90.4417 40.64C90.1084 41.72 89.8417 42.72 89.6417 43.64C90.1084 43.0133 90.6084 42.32 91.1417 41.56C91.6884 40.7867 92.2417 40.02 92.8017 39.26C93.3751 38.4867 93.9351 37.78 94.4817 37.14C95.0417 36.5 95.5617 35.9867 96.0417 35.6C96.5217 35.2133 96.9417 35.02 97.3017 35.02C97.9684 35.02 98.5017 35.2067 98.9017 35.58C99.3151 35.94 99.5217 36.5667 99.5217 37.46C99.5217 37.8733 99.4417 38.3733 99.2817 38.96C99.1217 39.5333 98.9284 40.14 98.7017 40.78C98.4884 41.4067 98.3017 42.0133 98.1417 42.6C97.9817 43.1867 97.9017 43.7 97.9017 44.14C97.9017 44.38 98.0151 44.5 98.2417 44.5C98.8951 44.5 99.5551 44.36 100.222 44.08C100.902 43.8 101.548 43.4533 102.162 43.04C102.788 42.6133 103.355 42.1933 103.862 41.78C104.382 41.3533 104.802 41 105.122 40.72C105.348 40.5067 105.555 40.3667 105.742 40.3C105.928 40.22 106.102 40.18 106.262 40.18C106.808 40.18 107.082 40.4533 107.082 41C107.082 41.1067 107.062 41.24 107.022 41.4C106.982 41.5467 106.855 41.7333 106.642 41.96C106.428 42.1867 106.108 42.5067 105.682 42.92C105.255 43.3333 104.755 43.7733 104.182 44.24C103.622 44.7067 103.008 45.1533 102.342 45.58C101.688 45.9933 101.015 46.3333 100.322 46.6C99.6284 46.8667 98.9551 47 98.3017 47C97.3151 47 96.5551 46.72 96.0217 46.16C95.4884 45.6133 95.2217 44.8667 95.2217 43.92C95.2217 43.2667 95.3551 42.4467 95.6217 41.46C95.8884 40.46 96.1884 39.44 96.5217 38.4C96.0551 38.8533 95.5684 39.3933 95.0617 40.02C94.5551 40.6333 94.0417 41.2867 93.5217 41.98C93.0017 42.66 92.4884 43.3333 91.9817 44C91.4884 44.6533 91.0151 45.2533 90.5617 45.8C90.1084 46.3333 89.6951 46.76 89.3217 47.08C88.9484 47.4 88.6284 47.56 88.3617 47.56ZM109.792 41.44C109.605 41.44 109.438 41.3667 109.292 41.22C109.158 41.06 109.092 40.7733 109.092 40.36C109.092 40.0667 109.145 39.6067 109.252 38.98C109.358 38.3533 109.505 37.6333 109.692 36.82C109.892 35.9933 110.118 35.1333 110.372 34.24C110.625 33.3333 110.898 32.4467 111.192 31.58C111.485 30.7 111.785 29.9067 112.092 29.2C112.238 28.8533 112.465 28.5933 112.772 28.42C113.092 28.2333 113.438 28.14 113.812 28.14C114.198 28.14 114.478 28.32 114.652 28.68C114.825 29.04 114.912 29.4333 114.912 29.86C114.912 30.02 114.832 30.32 114.672 30.76C114.525 31.2 114.325 31.7333 114.072 32.36C113.818 32.9867 113.538 33.6667 113.232 34.4C112.938 35.12 112.638 35.8533 112.332 36.6C112.038 37.3333 111.765 38.0333 111.512 38.7C111.258 39.3667 111.052 39.9533 110.892 40.46C110.785 40.82 110.638 41.0733 110.452 41.22C110.278 41.3667 110.058 41.44 109.792 41.44ZM108.752 47.02C108.592 47.02 108.405 46.98 108.192 46.9C107.978 46.82 107.792 46.6267 107.632 46.32C107.485 46.0267 107.412 45.5533 107.412 44.9C107.412 44.3933 107.572 44.0067 107.892 43.74C108.212 43.4733 108.638 43.34 109.172 43.34C109.625 43.34 109.972 43.4667 110.212 43.72C110.465 43.9733 110.592 44.3333 110.592 44.8C110.592 45.2267 110.485 45.6067 110.272 45.94C110.072 46.2733 109.825 46.5333 109.532 46.72C109.252 46.92 108.992 47.02 108.752 47.02Z" fill="black"/>
</svg>
