<svg id="Capa_1" data-name="Capa 1" xmlns="http://www.w3.org/2000/svg" viewBox="0 0 296.75 296.96"><defs><style>.cls-1{fill:#fee99f;}</style></defs><path class="cls-1" d="M440.88,43.22c0-.56,0-1.12,0-1.68H338.39c-.32.36-.62.73-.95,1.06q-30.49,30.51-61,61L145.13,234.93a2.64,2.64,0,0,0-1,1.24H244c.5,0,1.05-.17,1.51.2,1.16,0,.69.89.69,1.4q0,49.59,0,99.2a2.94,2.94,0,0,0,.14,1.52c.57-.05.8-.52,1.12-.84q96.15-96.14,192.3-192.26a3.33,3.33,0,0,0,1.08-2.62Q440.86,93,440.88,43.22Zm-2.29,101.55Q351.35,232,264.14,319.18l-15.53,15.51c-.31.31-.63.6-1.15,1.1v-99c0-1.61,0-1.61-1.63-1.61H148.78a2.36,2.36,0,0,1-1.73-.31,3,3,0,0,1,.92-1.08q95-95,190-190a3.07,3.07,0,0,1,2.41-1q48.66,0,97.3,0c2,0,2,0,2,2q0,48.72,0,97.42A3.33,3.33,0,0,1,438.59,144.77Z" transform="translate(-144.15 -41.54)"/></svg>